# xmcd CD database file
#
# Track frame offsets:
#	150
#	13855
#	27560
#	44472
#	70137
#	85871
#	105731
#	124144
#	138240
#	158232
#	177475
#
# Disc length: 2605 seconds
#
# Revision: 0
# Processed by: cddbd v1.5.2PL0 Copyright (c) Steve Scherf et al.
# Submitted via: CDex 1.70beta1
#
DISCID=960a2b0b
DTITLE=Wilco - Wilco (The Album)
DYEAR=2009
DGENRE=Country
TTITLE0=Wilco (The Song)
TTITLE1=Deeper Down
TTITLE2=One Wing
TTITLE3=Bull Black Nova
TTITLE4=You And I
TTITLE5=You Never Know
TTITLE6=Country Disappeared
TTITLE7=Solitaire
TTITLE8=I'll Fight
TTITLE9=Sonny Feeling
TTITLE10=Everlasting Everything
EXTD=YEAR: 2009
EXTT0=
EXTT1=
EXTT2=
EXTT3=
EXTT4=
EXTT5=
EXTT6=
EXTT7=
EXTT8=
EXTT9=
EXTT10=
PLAYORDER=
